<?xml version="1.0" encoding="UTF-8"?>
<svg width="492px" height="618px" viewBox="0 0 492 618" version="1.1" xmlns="http://www.w3.org/2000/svg" xmlns:xlink="http://www.w3.org/1999/xlink">
    <!-- Generator: sketchtool 55.2 (78181) - https://sketchapp.com -->
    <title>D6F89B65-D2E3-474C-B682-B1D84708593E</title>
    <desc>Created with sketchtool.</desc>
    <g id="main" stroke="none" stroke-width="1" fill="none" fill-rule="evenodd" opacity="0.39469401">
        <g id="Sign-in" transform="translate(-683.000000, -50.000000)" fill="#1A95E0" fill-rule="nonzero">
            <g id="unicef-logo-bg" transform="translate(460.000000, 50.000000)">
                <path d="M356,0 C222.193548,0 112,108.447581 112,244.5 C112,378.580645 220.225806,489 356,489 C489.806452,489 600,380.552419 600,244.5 C600,108.447581 489.806452,0 356,0 L356,0 Z M544.903226,108.447581 C533.096774,116.334677 519.322581,124.221774 505.548387,132.108871 C497.677419,116.334677 487.83871,100.560484 476.032258,86.7580645 C485.870968,80.8427419 495.709677,72.9556452 503.580645,67.0403226 C521.290323,76.8991935 535.064516,92.6733871 544.903226,108.447581 L544.903226,108.447581 Z M442.580645,27.6048387 C462.258065,35.4919355 479.967742,45.3508065 497.677419,59.1532258 C489.806452,67.0403226 479.967742,72.9556452 470.129032,78.8709677 C458.322581,65.0685484 444.548387,53.2379032 430.774194,41.4072581 C434.709677,35.4919355 438.645161,31.5483871 442.580645,27.6048387 L442.580645,27.6048387 Z M462.258065,82.8145161 C448.483871,90.7016129 434.709677,94.6451613 420.935484,100.560484 C415.032258,86.7580645 409.129032,72.9556452 401.258065,61.125 C409.129032,57.1814516 417,53.2379032 422.903226,47.3225806 C436.677419,57.1814516 450.451613,69.0120968 462.258065,82.8145161 L462.258065,82.8145161 Z M432.741935,23.6612903 C428.806452,27.6048387 424.870968,31.5483871 422.903226,35.4919355 C409.129032,27.6048387 397.322581,19.7177419 381.580645,13.8024194 C399.290323,13.8024194 417,17.7459677 432.741935,23.6612903 L432.741935,23.6612903 Z M415.032258,41.4072581 C409.129032,45.3508065 403.225806,49.2943548 397.322581,51.266129 C389.451613,39.4354839 381.580645,29.5766129 373.709677,17.7459677 C387.483871,23.6612903 401.258065,31.5483871 415.032258,41.4072581 L415.032258,41.4072581 Z M359.935484,19.7177419 C369.774194,29.5766129 377.645161,41.4072581 385.516129,55.2096774 C377.645161,57.1814516 369.774194,59.1532258 359.935484,59.1532258 L359.935484,19.7177419 Z M359.935484,69.0120968 C369.774194,69.0120968 381.580645,67.0403226 391.419355,63.0967742 C399.290323,74.9274194 405.193548,88.7298387 411.096774,102.532258 C395.354839,106.475806 377.645161,108.447581 359.935484,110.419355 L359.935484,69.0120968 Z M350.096774,19.7177419 L350.096774,59.1532258 C342.225806,59.1532258 334.354839,57.1814516 324.516129,55.2096774 C334.354839,43.3790323 342.225806,31.5483871 350.096774,19.7177419 L350.096774,19.7177419 Z M316.645161,51.266129 C310.741935,49.2943548 302.870968,45.3508065 298.935484,41.4072581 C312.709677,33.5201613 326.483871,25.6330645 340.258065,19.7177419 C330.419355,29.5766129 322.548387,39.4354839 316.645161,51.266129 L316.645161,51.266129 Z M330.419355,11.8306452 C316.645161,17.7459677 302.870968,25.6330645 289.096774,33.5201613 C285.16129,29.5766129 281.225806,25.6330645 279.258065,21.6895161 C295,17.7459677 312.709677,13.8024194 330.419355,11.8306452 L330.419355,11.8306452 Z M497.677419,429.846774 C466.193548,412.100806 464.225806,386.467742 466.193548,378.580645 C468.16129,368.721774 474.064516,372.665323 478,372.665323 C499.645161,372.665323 521.290323,366.75 548.83871,337.173387 C580.322581,305.625 590.16129,234.641129 540.967742,189.290323 C489.806452,139.995968 434.709677,147.883065 399.290323,193.233871 C391.419355,203.092742 373.709677,209.008065 359.935484,209.008065 C336.322581,209.008065 352.064516,226.754032 352.064516,230.697581 C352.064516,234.641129 348.129032,236.612903 346.16129,236.612903 C338.290323,234.641129 342.225806,246.471774 342.225806,248.443548 C342.225806,250.415323 338.290323,254.358871 338.290323,254.358871 C328.451613,254.358871 330.419355,262.245968 332.387097,266.189516 C332.387097,268.16129 332.387097,272.104839 328.451613,274.076613 C324.516129,276.048387 322.548387,283.935484 322.548387,289.850806 C322.548387,299.709677 332.387097,307.596774 348.129032,319.427419 C363.870968,331.258065 365.83871,343.08871 365.83871,350.975806 C365.83871,358.862903 367.806452,372.665323 369.774194,380.552419 C373.709677,390.41129 373.709677,410.129032 352.064516,410.129032 C324.516129,412.100806 277.290323,431.818548 273.354839,433.790323 C257.612903,439.705645 237.935484,441.677419 222.193548,437.733871 C214.322581,431.818548 206.451613,425.903226 198.580645,418.016129 C194.645161,408.157258 200.548387,396.326613 206.451613,388.439516 C216.290323,398.298387 228.096774,396.326613 235.967742,396.326613 C243.83871,396.326613 279.258065,390.41129 285.16129,388.439516 C291.064516,386.467742 293.032258,386.467742 295,388.439516 C308.774194,394.354839 328.451613,394.354839 336.322581,368.721774 C344.193548,341.116935 326.483871,349.004032 322.548387,350.975806 C320.580645,352.947581 316.645161,350.975806 318.612903,349.004032 C322.548387,343.08871 316.645161,343.08871 314.677419,343.08871 C306.806452,343.08871 296.967742,350.975806 295,352.947581 C291.064516,354.919355 289.096774,354.919355 287.129032,354.919355 C277.290323,349.004032 247.774194,356.891129 237.935484,341.116935 C237.935484,337.173387 230.064516,272.104839 226.129032,260.274194 C226.129032,258.302419 224.16129,254.358871 228.096774,250.415323 C235.967742,238.584677 255.645161,250.415323 267.451613,250.415323 C281.225806,250.415323 283.193548,244.5 287.129032,240.556452 C291.064516,236.612903 293.032258,238.584677 295,236.612903 C296.967742,234.641129 295,232.669355 295,230.697581 C295,228.725806 296.967742,230.697581 298.935484,228.725806 C300.903226,226.754032 298.935484,222.810484 298.935484,220.83871 C302.870968,214.923387 310.741935,218.866935 306.806452,207.03629 C304.83871,199.149194 308.774194,191.262097 312.709677,187.318548 C318.612903,179.431452 344.193548,143.939516 300.903226,106.475806 C259.580645,70.983871 216.290323,74.9274194 188.741935,104.504032 C161.193548,134.080645 174.967742,177.459677 176.935484,189.290323 C178.903226,201.120968 171.032258,210.979839 161.193548,214.923387 C153.322581,218.866935 135.612903,230.697581 123.806452,240.556452 C125.774194,145.91129 182.83871,63.0967742 269.419355,29.5766129 C273.354839,33.5201613 277.290323,39.4354839 281.225806,43.3790323 C271.387097,51.266129 249.741935,69.0120968 249.741935,69.0120968 C249.741935,69.0120968 251.709677,69.0120968 255.645161,70.983871 C257.612903,70.983871 261.548387,72.9556452 261.548387,72.9556452 C261.548387,72.9556452 279.258065,57.1814516 289.096774,51.266129 C295,57.1814516 302.870968,61.125 310.741935,65.0685484 C306.806452,72.9556452 295,92.6733871 295,92.6733871 C295,92.6733871 296.967742,94.6451613 298.935484,94.6451613 C300.903226,96.6169355 302.870968,96.6169355 302.870968,96.6169355 C302.870968,96.6169355 314.677419,74.9274194 318.612903,67.0403226 C328.451613,70.983871 338.290323,72.9556452 348.129032,72.9556452 L348.129032,112.391129 C342.225806,112.391129 328.451613,112.391129 322.548387,110.419355 L318.612903,110.419355 L320.580645,114.362903 C322.548387,116.334677 322.548387,118.306452 324.516129,120.278226 L324.516129,120.278226 L324.516129,120.278226 C328.451613,120.278226 342.225806,120.278226 348.129032,120.278226 L348.129032,193.233871 L357.967742,193.233871 L357.967742,175.487903 C373.709677,175.487903 385.516129,173.516129 399.290323,171.544355 L399.290323,171.544355 L413.064516,159.71371 L405.193548,159.71371 C389.451613,161.685484 375.677419,163.657258 363.870968,163.657258 C363.870968,163.657258 359.935484,163.657258 357.967742,163.657258 L357.967742,118.306452 C375.677419,118.306452 395.354839,116.334677 413.064516,110.419355 C417,122.25 426.83871,151.826613 426.83871,151.826613 L436.677419,147.883065 C436.677419,147.883065 426.83871,118.306452 422.903226,106.475806 C438.645161,102.532258 452.419355,94.6451613 466.193548,88.7298387 C478,102.532258 487.83871,118.306452 495.709677,134.080645 C487.83871,138.024194 476.032258,141.967742 476.032258,141.967742 C485.870968,143.939516 493.741935,145.91129 493.741935,145.91129 C493.741935,145.91129 497.677419,143.939516 499.645161,143.939516 C499.645161,145.91129 501.612903,149.854839 501.612903,149.854839 L515.387097,155.770161 L513.419355,151.826613 C513.419355,151.826613 509.483871,141.967742 507.516129,139.995968 C521.290323,134.080645 535.064516,126.193548 548.83871,116.334677 C574.419355,153.798387 586.225806,199.149194 586.225806,244.5 C590.16129,319.427419 552.774194,386.467742 497.677419,429.846774 L497.677419,429.846774 Z" id="Shape"></path>
                <path d="M151.839744,531.331075 L151.839744,531.331075 L142,533.300823 L151.839744,537.240319 C193.166667,554.968054 244.333333,558.907551 275.820513,549.058809 C287.628205,545.119313 293.532051,539.210068 301.403846,531.331075 C354.538462,537.240319 403.737179,580.574782 433.25641,616.030252 C433.25641,616.030252 435.224359,618 435.224359,618 L437.192308,618 C441.128205,616.030252 445.064103,612.090755 447.032051,610.121007 L449,608.151258 L447.032051,606.18151 C417.512821,566.786544 370.282051,543.149564 368.314103,541.179816 C325.019231,521.482333 250.237179,505.724347 151.839744,531.331075" id="Path"></path>
                <path d="M153.979167,421.968085 L153.979167,425.904255 C159.916667,465.265951 175.75,516.436157 243.041667,510.531903 L247,510.531903 L245.020833,506.595733 C241.0625,488.882969 179.708333,437.712764 157.9375,423.93617 L152,420 L153.979167,421.968085 Z" id="Path"></path>
                <path d="M619,62 L620.972281,71.7 C626.889122,106.62 642.667367,137.66 662.390172,155.12 L666.334734,159 C666.334734,159 668.307014,151.24 668.307014,151.24 C668.307014,151.24 668.307014,149.3 668.307014,149.3 C674.223856,112.44 640.695086,79.46 626.889122,67.82 L622.944561,63.94 L619,62 Z" id="Path"></path>
                <path d="M687.191192,125 L683.266055,132.882353 C673.453211,158.5 669.528073,215.647059 671.490642,243.235294 L675.41578,259 L677.378349,257.029412 C677.378349,257.029412 679.340917,253.088235 679.340917,253.088235 C700.929174,227.470588 700.929174,193.970588 697.004036,168.352941 C695.041467,150.617647 691.11633,138.794118 689.153761,132.882353 L687.191192,128.941176 L687.191192,125 Z" id="Path"></path>
                <path d="M712.581181,223 L706.738828,230.940299 C687.264316,256.746269 660,324.238806 660,348.059701 L660,356 C660,356 665.842353,352.029851 665.842353,352.029851 C714.528632,320.268657 716.476083,258.731343 714.528632,232.925373 L714.528632,228.955224 L712.581181,223 Z" id="Path"></path>
                <path d="M704,330 L696.235294,333.933333 C665.176471,353.6 616.647059,414.566667 606.941176,440.133333 L605,448 L612.764706,446.033333 C663.235294,430.3 696.235294,373.266667 702.058824,337.866667 L702.058824,333.933333 L704,330 Z" id="Path"></path>
                <path d="M601,115 L602.962993,124.803922 C610.814964,150.294118 634.370877,193.431373 655.963797,211.078431 L661.852776,215 L661.852776,207.156863 C663.815768,171.862745 646.148833,144.411765 608.851971,120.882353 L604.925986,118.921569 L601,115 Z" id="Path"></path>
                <path d="M622.126791,192 L622.126791,199.79661 C620.136612,225.135593 642.02858,281.661017 655.959832,301.152542 L659.940189,307 L661.930368,301.152542 C663.920547,293.355932 665.910726,287.508475 665.910726,281.661017 C667.900905,240.728814 636.058043,207.59322 626.107149,197.847458 L624.11697,195.898305 L622.126791,192 Z" id="Path"></path>
                <path d="M620.823529,262 L618.882353,269.878788 C616.941176,275.787879 615,285.636364 615,297.454545 C615,330.939394 618.882353,372.30303 626.647059,386.090909 L628.588235,392 L632.470588,386.090909 C642.176471,372.30303 648,356.545455 648,338.818182 C648,317.151515 640.235294,291.545455 624.705882,267.909091 L622.764706,263.969697 L620.823529,262 Z" id="Path"></path>
                <path d="M602.2,338 L598.28,343.909091 C582.6,363.606061 563,430.575758 563,456.181818 C563,456.181818 563,460.121212 563,462.090909 L564.96,468 C564.96,468 568.88,466.030303 568.88,466.030303 C596.32,448.30303 610.04,422.69697 612,391.181818 C612,377.393939 610.04,361.636364 606.12,345.878788 L604.16,341.939394 L602.2,338 Z" id="Path"></path>
                <path d="M659,440 C659,440 651.121212,441.948705 651.121212,441.948705 C623.545455,445.846114 544.757576,490.666323 532.939394,508.204666 L529,512.102076 L534.909091,512.102076 C599.909091,523.794304 635.363636,478.974095 655.060606,445.846114 L657.030303,441.948705 L659,440 Z" id="Path"></path>
                <path d="M346.685897,541.179816 C344.717949,541.179816 297.487179,566.786544 267.967949,606.18151 L266,608.151258 L267.967949,610.121007 C269.935897,612.090755 275.839744,616.030252 277.807692,618 L279.775641,618 C279.775641,618 281.74359,616.030252 281.74359,616.030252 C311.262821,580.574782 360.461538,535.270571 413.596154,531.331075 C421.467949,539.210068 429.339744,545.119313 439.179487,549.058809 C468.698718,558.907551 521.833333,554.968054 563.160256,537.240319 L573,533.300823 L563.160256,531.331075 C462.794872,505.724347 388.012821,521.482333 346.685897,541.179816" id="Path"></path>
                <path d="M560,418 L554.0625,421.93617 C532.291667,435.712764 472.916667,486.882969 466.979167,504.595733 L465,508.531903 L468.958333,508.531903 C534.270833,514.436157 550.104167,463.265951 558.020833,423.904255 L558.020833,419.968085 L560,418 Z" id="Path"></path>
            </g>
        </g>
    </g>
</svg>